<svg width="219" height="212" viewBox="0 0 219 212" fill="none" xmlns="http://www.w3.org/2000/svg">
<path d="M40.4868 29.4854C40.4868 29.4854 41.9932 43.5453 47.8606 49.4128C53.7281 55.2803 67.7881 56.7866 67.7881 56.7866C67.7881 56.7866 53.7281 58.293 47.8606 64.1605C41.9932 70.0279 40.4868 84.0879 40.4868 84.0879C40.4868 84.0879 38.9805 70.0279 33.113 64.1605C27.2455 58.293 13.1855 56.7866 13.1855 56.7866C13.1855 56.7866 27.2455 55.2803 33.113 49.4128C38.9805 43.5453 40.4868 29.4854 40.4868 29.4854Z" fill="#8572A3"/>
<path d="M13.1855 16.9269C13.1855 16.9269 13.8785 23.3945 16.5775 26.0935C19.2765 28.7925 25.7441 29.4855 25.7441 29.4855C25.7441 29.4855 19.2765 30.1784 16.5775 32.8774C13.8785 35.5765 13.1855 42.0441 13.1855 42.0441C13.1855 42.0441 12.4926 35.5765 9.79358 32.8774C7.09455 30.1784 0.626953 29.4855 0.626953 29.4855C0.626953 29.4855 7.09455 28.7925 9.79358 26.0935C12.4926 23.3945 13.1855 16.9269 13.1855 16.9269Z" fill="#8572A3"/>
<path d="M40.4868 0C40.4868 0 40.999 4.7804 42.9939 6.77533C44.9889 8.77027 49.7693 9.28243 49.7693 9.28243C49.7693 9.28243 44.9889 9.7946 42.9939 11.7895C40.999 13.7845 40.4868 18.5649 40.4868 18.5649C40.4868 18.5649 39.9747 13.7845 37.9797 11.7895C35.9848 9.7946 31.2044 9.28243 31.2044 9.28243C31.2044 9.28243 35.9848 8.77027 37.9797 6.77533C39.9747 4.7804 40.4868 0 40.4868 0Z" fill="#8572A3"/>
<circle cx="128.397" cy="67.1611" r="60.977" stroke="#5DADE2" stroke-width="8"/>
<path d="M126.759 6.18408C134.595 6.18428 142.534 11.959 148.744 23.1558C154.878 34.2157 158.796 49.7659 158.796 67.1606C158.796 84.5556 154.878 100.106 148.744 111.167C142.534 122.363 134.595 128.138 126.759 128.138C118.923 128.138 110.984 122.363 104.774 111.167C98.6399 100.106 94.7212 84.5555 94.7212 67.1606C94.7213 49.766 98.64 34.2157 104.774 23.1558C110.984 11.9588 118.923 6.18408 126.759 6.18408Z" stroke="#5DADE2" stroke-width="8"/>
<path d="M66.8738 67.1608C66.874 59.3251 72.6488 51.3864 83.8455 45.1764C94.9054 39.0424 110.456 35.1237 127.85 35.1237C145.245 35.1237 160.796 39.0424 171.856 45.1764C183.053 51.3864 188.828 59.3251 188.828 67.1608C188.828 74.9966 183.053 82.936 171.856 89.1461C160.796 95.2801 145.245 99.1988 127.85 99.1988C110.456 99.1988 94.9054 95.2801 83.8455 89.1461C72.6486 82.936 66.8738 74.9966 66.8738 67.1608Z" stroke="#5DADE2" stroke-width="8"/>
<line x1="69.4261" y1="65.8914" x2="189.552" y2="65.8914" stroke="#5DADE2" stroke-width="8"/>
<line x1="125.486" y1="128.319" x2="125.486" y2="8.1931" stroke="#5DADE2" stroke-width="8"/>
<path d="M210 67.1611L140.368 136.793" stroke="#2A4D69" stroke-width="18" stroke-linecap="round"/>
<path d="M134.829 77.4478L187.053 87.7343" stroke="#2A4D69" stroke-width="18" stroke-linecap="round"/>
<path d="M199.714 139.958L189.427 88.5255" stroke="#2A4D69" stroke-width="18" stroke-linecap="round"/>
<path d="M115.838 128.089L137.203 139.167L148.281 160.532" stroke="#2A4D69" stroke-width="18" stroke-linecap="round"/>
<path d="M108.677 161.412C122.103 166.806 128.978 156.814 130.738 151.144C134.868 176.405 117.333 185.219 108.049 186.468C104.472 186.909 94.956 186.358 85.5123 180.626C76.0686 174.895 66.1913 160.056 62.433 153.353C58.787 145.298 47.9521 129.153 33.7811 129.013C19.61 128.874 13.4496 142.526 12.1408 149.369C10.1319 139.4 9.79356 116.711 24.5115 105.711C42.9089 91.962 56.5639 102.022 63.0944 105.753C69.6249 109.483 80.0857 122.65 89.0305 139.087C96.1864 152.236 105.11 159.449 108.677 161.412Z" fill="#8572A3"/>
</svg>
