<svg width="335" height="286" viewBox="0 0 335 286" fill="none" xmlns="http://www.w3.org/2000/svg">
<path d="M102.487 29.4854C102.487 29.4854 103.993 43.5453 109.861 49.4128C115.728 55.2803 129.788 56.7866 129.788 56.7866C129.788 56.7866 115.728 58.293 109.861 64.1605C103.993 70.0279 102.487 84.0879 102.487 84.0879C102.487 84.0879 100.98 70.0279 95.113 64.1605C89.2455 58.293 75.1855 56.7866 75.1855 56.7866C75.1855 56.7866 89.2455 55.2803 95.113 49.4128C100.98 43.5453 102.487 29.4854 102.487 29.4854Z" fill="#8572A3"/>
<path d="M75.1855 16.9269C75.1855 16.9269 75.8785 23.3945 78.5775 26.0935C81.2765 28.7925 87.7441 29.4855 87.7441 29.4855C87.7441 29.4855 81.2765 30.1784 78.5775 32.8774C75.8785 35.5765 75.1855 42.0441 75.1855 42.0441C75.1855 42.0441 74.4926 35.5765 71.7936 32.8774C69.0945 30.1784 62.627 29.4855 62.627 29.4855C62.627 29.4855 69.0945 28.7925 71.7936 26.0935C74.4926 23.3945 75.1855 16.9269 75.1855 16.9269Z" fill="#8572A3"/>
<path d="M102.487 0C102.487 0 102.999 4.7804 104.994 6.77533C106.989 8.77027 111.769 9.28243 111.769 9.28243C111.769 9.28243 106.989 9.7946 104.994 11.7895C102.999 13.7845 102.487 18.5649 102.487 18.5649C102.487 18.5649 101.975 13.7845 99.9797 11.7895C97.9848 9.7946 93.2044 9.28243 93.2044 9.28243C93.2044 9.28243 97.9848 8.77027 99.9797 6.77533C101.975 4.7804 102.487 0 102.487 0Z" fill="#8572A3"/>
<circle cx="190.397" cy="67.1611" r="60.977" stroke="#5DADE2" stroke-width="8"/>
<path d="M188.759 6.18408C196.595 6.18428 204.534 11.959 210.744 23.1558C216.878 34.2157 220.796 49.7659 220.796 67.1606C220.796 84.5556 216.878 100.106 210.744 111.167C204.534 122.363 196.595 128.138 188.759 128.138C180.923 128.138 172.984 122.363 166.774 111.167C160.64 100.106 156.721 84.5555 156.721 67.1606C156.721 49.766 160.64 34.2157 166.774 23.1558C172.984 11.9588 180.923 6.18408 188.759 6.18408Z" stroke="#5DADE2" stroke-width="8"/>
<path d="M128.874 67.1608C128.874 59.3251 134.649 51.3864 145.846 45.1764C156.905 39.0424 172.456 35.1237 189.85 35.1237C207.245 35.1237 222.796 39.0424 233.856 45.1764C245.053 51.3864 250.828 59.3251 250.828 67.1608C250.828 74.9966 245.053 82.936 233.856 89.1461C222.796 95.2801 207.245 99.1988 189.85 99.1988C172.456 99.1988 156.905 95.2801 145.846 89.1461C134.649 82.936 128.874 74.9966 128.874 67.1608Z" stroke="#5DADE2" stroke-width="8"/>
<line x1="131.426" y1="65.8914" x2="251.552" y2="65.8914" stroke="#5DADE2" stroke-width="8"/>
<line x1="187.486" y1="128.319" x2="187.486" y2="8.1931" stroke="#5DADE2" stroke-width="8"/>
<path d="M272 67.1611L202.368 136.793" stroke="#2A4D69" stroke-width="18" stroke-linecap="round"/>
<path d="M196.829 77.4478L249.053 87.7343" stroke="#2A4D69" stroke-width="18" stroke-linecap="round"/>
<path d="M261.714 139.958L251.427 88.5255" stroke="#2A4D69" stroke-width="18" stroke-linecap="round"/>
<path d="M177.838 128.089L199.203 139.167L210.281 160.532" stroke="#2A4D69" stroke-width="18" stroke-linecap="round"/>
<path d="M170.677 161.412C184.103 166.806 190.978 156.814 192.738 151.144C196.868 176.405 179.333 185.219 170.049 186.468C166.472 186.909 156.956 186.358 147.512 180.626C138.069 174.895 128.191 160.056 124.433 153.353C120.787 145.298 109.952 129.153 95.7811 129.013C81.61 128.874 75.4496 142.526 74.1408 149.369C72.1319 139.4 71.7936 116.711 86.5115 105.711C104.909 91.962 118.564 102.022 125.094 105.753C131.625 109.483 142.086 122.65 151.031 139.087C158.186 152.236 167.11 159.449 170.677 161.412Z" fill="#8572A3"/>
</svg>
